<svg width="79" height="24" viewBox="0 0 79 24" fill="none" xmlns="http://www.w3.org/2000/svg">
<path fill-rule="evenodd" clip-rule="evenodd" d="M34.8037 7.71338L32.4404 11.1457L30.0631 7.71338H28.1781L31.4698 12.3273L28.0093 17.1665H29.8942L32.4404 13.5231L34.9584 17.1665H36.8434L33.3829 12.3273L36.6746 7.71338H34.8037Z" fill="white"/>
<path fill-rule="evenodd" clip-rule="evenodd" d="M41.9496 8.95116C42.6389 8.95116 43.1734 9.17624 43.5392 9.61233C43.8909 10.0343 44.0878 10.6533 44.1019 11.441H39.5301C39.6145 10.6814 39.8676 10.0765 40.2616 9.64041C40.6836 9.17624 41.2462 8.95116 41.9496 8.95116ZM41.9637 7.54443C40.6976 7.54443 39.6707 7.9946 38.9251 8.89486C38.1796 9.7811 37.7998 11.005 37.7998 12.5101C37.7998 14.0153 38.2077 15.1969 39.0095 16.041C39.8114 16.885 40.9367 17.3211 42.3294 17.3211C42.9624 17.3211 43.497 17.2789 43.9471 17.1804C44.3973 17.0819 44.8755 16.9272 45.3679 16.7162L45.4382 16.688V15.1829L45.2694 15.2532C44.3129 15.6612 43.3422 15.8722 42.3716 15.8722C41.4713 15.8722 40.7539 15.6049 40.2616 15.0703C39.7832 14.5498 39.516 13.7902 39.4738 12.8056H45.8321V11.8068C45.8321 10.5407 45.4805 9.49978 44.7911 8.72608C44.1019 7.93829 43.1453 7.54443 41.9637 7.54443Z" fill="white"/>
<path fill-rule="evenodd" clip-rule="evenodd" d="M52.4577 7.54443C51.8106 7.54443 51.2057 7.67105 50.6852 7.92422C50.221 8.1493 49.8271 8.45877 49.5458 8.85269L49.3348 7.6992H47.9844V17.1523H49.6161V12.2006C49.6161 11.0331 49.8271 10.189 50.2632 9.69671C50.6852 9.20433 51.3745 8.95116 52.2889 8.95116C52.9782 8.95116 53.4846 9.11994 53.8081 9.47163C54.1317 9.82333 54.2864 10.3579 54.2864 11.0753V17.1523H55.9182V11.019C55.9182 9.80926 55.6228 8.92301 55.046 8.3603C54.4693 7.82575 53.5971 7.54443 52.4577 7.54443Z" fill="white"/>
<path fill-rule="evenodd" clip-rule="evenodd" d="M62.1641 15.9145C61.3623 15.9145 60.7715 15.6332 60.3635 15.0705C59.9556 14.4938 59.7446 13.6216 59.7446 12.4822C59.7446 11.3568 59.9556 10.4706 60.3776 9.85159C60.7855 9.24673 61.3763 8.95133 62.1641 8.95133C63.0785 8.95133 63.7396 9.21858 64.1476 9.73912C64.5696 10.2736 64.7806 11.188 64.7806 12.454V12.7494C64.7806 13.8748 64.5696 14.6907 64.1616 15.183C63.7396 15.6754 63.0785 15.9145 62.1641 15.9145ZM64.7525 7.71345L64.7806 8.36048L64.8228 8.78256C64.1476 7.95254 63.191 7.53053 61.9813 7.53053C60.7433 7.53053 59.7727 7.96662 59.0834 8.83879C58.3941 9.69689 58.0425 10.9067 58.0425 12.454C58.0425 13.9874 58.3941 15.1971 59.0694 16.0411C59.7586 16.8851 60.7433 17.3212 61.9813 17.3212C63.2332 17.3212 64.2039 16.8851 64.8649 16.013L65.0336 17.1525H66.3983V3.84497H64.7665L64.7525 7.71345Z" fill="white"/>
<path fill-rule="evenodd" clip-rule="evenodd" d="M69.9432 4.28101C69.676 4.28101 69.4509 4.36541 69.268 4.53421C69.0851 4.70302 69.0007 4.97029 69.0007 5.32197C69.0007 5.67365 69.0851 5.92685 69.268 6.10973C69.4509 6.2926 69.676 6.377 69.9432 6.377C70.1962 6.377 70.4213 6.2926 70.6042 6.10973C70.7871 5.92685 70.8857 5.67365 70.8857 5.32197C70.8857 4.97029 70.7871 4.71709 70.6042 4.53421C70.4213 4.36541 70.1962 4.28101 69.9432 4.28101Z" fill="white"/>
<path fill-rule="evenodd" clip-rule="evenodd" d="M69.1135 17.1665H70.7591V7.71338H69.1135V17.1665Z" fill="white"/>
<path fill-rule="evenodd" clip-rule="evenodd" d="M77.8068 15.7739C77.6803 15.816 77.4974 15.8442 77.2723 15.8864C77.0472 15.9145 76.8222 15.9426 76.5685 15.9426C76.1469 15.9426 75.809 15.816 75.5703 15.5347C75.3309 15.2675 75.2044 14.8595 75.2044 14.339V9.03569H77.8769V7.71342H75.2044V5.5752H74.1912L73.5867 7.57273L72.2505 8.16352V9.03569H73.5724V14.3953C73.5724 16.3366 74.5149 17.3353 76.372 17.3353C76.6114 17.3353 76.8786 17.3071 77.188 17.265C77.4974 17.2087 77.7225 17.1524 77.8911 17.068L77.9612 17.0399V15.7316L77.8068 15.7739Z" fill="white"/>
<path d="M13.27 0.525146H6.99603L0.525146 11.7366L6.99603 22.9481L8.27614 20.7396L3.08536 11.7366L8.27614 2.74775H11.9899L13.27 0.525146Z" fill="white"/>
<path d="M8.85267 8.13526L10.1187 5.94079L8.27596 2.74756L6.99585 4.94203L8.85267 8.13526Z" fill="white"/>
<path d="M16.1113 2.74756L17.3914 4.9561L8.27596 20.7394L6.99585 18.5308L16.1113 2.74756Z" fill="white"/>
<path d="M11.1316 22.9481L12.3976 20.7396H16.1114L21.3021 11.7366L16.1114 2.74775L17.3914 0.525146L23.8624 11.7366L17.3914 22.9481H11.1316Z" fill="white"/>
<path d="M15.5064 15.2954L14.2263 17.5039L16.1113 20.7394L17.3914 18.5449L15.5064 15.2954Z" fill="white"/>
</svg>
